<svg width="33" height="15" viewBox="0 0 33 15" fill="none" xmlns="http://www.w3.org/2000/svg">
<path d="M14.3182 15H7.5C5.51088 15 3.60322 14.2098 2.1967 12.8033C0.790177 11.3968 0 9.48912 0 7.5C0 5.51088 0.790177 3.60322 2.1967 2.1967C3.60322 0.790176 5.51088 0 7.5 0H14.3182C14.499 0 14.6724 0.0718337 14.8003 0.199699C14.9282 0.327565 15 0.500989 15 0.681818C15 0.862648 14.9282 1.03607 14.8003 1.16394C14.6724 1.2918 14.499 1.36364 14.3182 1.36364H7.5C5.87254 1.36364 4.31173 2.01014 3.16094 3.16094C2.01014 4.31173 1.36364 5.87254 1.36364 7.5C1.36364 9.12747 2.01014 10.6883 3.16094 11.8391C4.31173 12.9899 5.87254 13.6364 7.5 13.6364H14.3182C14.499 13.6364 14.6724 13.7082 14.8003 13.8361C14.9282 13.9639 15 14.1374 15 14.3182C15 14.499 14.9282 14.6724 14.8003 14.8003C14.6724 14.9282 14.499 15 14.3182 15Z" fill="#EFE5DC"/>
<path d="M25.5 15H18.6818C18.501 15 18.3276 14.9282 18.1997 14.8003C18.0718 14.6724 18 14.499 18 14.3182C18 14.1374 18.0718 13.9639 18.1997 13.8361C18.3276 13.7082 18.501 13.6364 18.6818 13.6364H25.5C27.1275 13.6364 28.6883 12.9899 29.8391 11.8391C30.9899 10.6883 31.6364 9.12747 31.6364 7.5C31.6364 5.87254 30.9899 4.31173 29.8391 3.16094C28.6883 2.01014 27.1275 1.36364 25.5 1.36364H18.6818C18.501 1.36364 18.3276 1.2918 18.1997 1.16394C18.0718 1.03607 18 0.862648 18 0.681818C18 0.500989 18.0718 0.327565 18.1997 0.199699C18.3276 0.0718337 18.501 0 18.6818 0H25.5C27.4891 0 29.3968 0.790176 30.8033 2.1967C32.2098 3.60322 33 5.51088 33 7.5C33 9.48912 32.2098 11.3968 30.8033 12.8033C29.3968 14.2098 27.4891 15 25.5 15Z" fill="#EFE5DC"/>
<path d="M22.125 9H10.875C10.3777 9 9.90081 8.78929 9.54917 8.41421C9.19754 8.03914 9 7.53043 9 7C9 6.46957 9.19754 5.96086 9.54917 5.58579C9.90081 5.21071 10.3777 5 10.875 5H22.125C22.6223 5 23.0992 5.21071 23.4508 5.58579C23.8025 5.96086 24 6.46957 24 7C24 7.53043 23.8025 8.03914 23.4508 8.41421C23.0992 8.78929 22.6223 9 22.125 9ZM10.875 6.33333C10.7092 6.33333 10.5503 6.40357 10.4331 6.52859C10.3158 6.65362 10.25 6.82319 10.25 7C10.25 7.17681 10.3158 7.34638 10.4331 7.47141C10.5503 7.59643 10.7092 7.66667 10.875 7.66667H22.125C22.2908 7.66667 22.4497 7.59643 22.5669 7.47141C22.6842 7.34638 22.75 7.17681 22.75 7C22.75 6.82319 22.6842 6.65362 22.5669 6.52859C22.4497 6.40357 22.2908 6.33333 22.125 6.33333H10.875Z" fill="#EFE5DC"/>
</svg>
